<svg xmlns="http://www.w3.org/2000/svg" viewBox="0 0 100 100" width="100" height="100">
  <defs>
    <radialGradient id="petalClean">
      <stop offset="0%" style="stop-color:#FFFFFF"/>
      <stop offset="80%" style="stop-color:#F2B5C4"/>
      <stop offset="100%" style="stop-color:#E896AB"/>
    </radialGradient>
    
    <radialGradient id="centerClean">
      <stop offset="0%" style="stop-color:#FFD700"/>
      <stop offset="50%" style="stop-color:#D4A574"/>
      <stop offset="100%" style="stop-color:#4A6741"/>
    </radialGradient>
  </defs>
  
  <g transform="translate(50, 50)">
    <!-- 5 petals - clean, botanical accuracy -->
    <path d="M 0,-18 Q -6,-30 -3,-38 Q 0,-42 3,-38 Q 6,-30 0,-18 Z" fill="url(#petalClean)" opacity="0.95"/>
    <g transform="rotate(72)">
      <path d="M 0,-18 Q -6,-30 -3,-38 Q 0,-42 3,-38 Q 6,-30 0,-18 Z" fill="url(#petalClean)" opacity="0.95"/>
    </g>
    <g transform="rotate(144)">
      <path d="M 0,-18 Q -6,-30 -3,-38 Q 0,-42 3,-38 Q 6,-30 0,-18 Z" fill="url(#petalClean)" opacity="0.95"/>
    </g>
    <g transform="rotate(216)">
      <path d="M 0,-18 Q -6,-30 -3,-38 Q 0,-42 3,-38 Q 6,-30 0,-18 Z" fill="url(#petalClean)" opacity="0.95"/>
    </g>
    <g transform="rotate(288)">
      <path d="M 0,-18 Q -6,-30 -3,-38 Q 0,-42 3,-38 Q 6,-30 0,-18 Z" fill="url(#petalClean)" opacity="0.95"/>
    </g>
    
    <!-- Stamens ring (おしべ) - 8 golden pollen-bearing anthers -->
    <g opacity="0.9">
      <circle cx="0" cy="-10" r="2.2" fill="#FFE4B5"/>
      <circle cx="7" cy="-7" r="2.2" fill="#FFE4B5"/>
      <circle cx="10" cy="0" r="2.2" fill="#FFE4B5"/>
      <circle cx="7" cy="7" r="2.2" fill="#FFE4B5"/>
      <circle cx="0" cy="10" r="2.2" fill="#FFE4B5"/>
      <circle cx="-7" cy="7" r="2.2" fill="#FFE4B5"/>
      <circle cx="-10" cy="0" r="2.2" fill="#FFE4B5"/>
      <circle cx="-7" cy="-7" r="2.2" fill="#FFE4B5"/>
      <circle cx="0" cy="-10" r="1.2" fill="#D4A574"/>
      <circle cx="7" cy="-7" r="1.2" fill="#D4A574"/>
      <circle cx="10" cy="0" r="1.2" fill="#D4A574"/>
      <circle cx="7" cy="7" r="1.2" fill="#D4A574"/>
      <circle cx="0" cy="10" r="1.2" fill="#D4A574"/>
      <circle cx="-7" cy="7" r="1.2" fill="#D4A574"/>
      <circle cx="-10" cy="0" r="1.2" fill="#D4A574"/>
      <circle cx="-7" cy="-7" r="1.2" fill="#D4A574"/>
    </g>
    
    <!-- Pistil (めしべ) - THE CENTER OF ALL CONNECTION -->
    <ellipse cx="0" cy="3" rx="4.5" ry="5.5" fill="#6B8B62"/>
    <rect x="-1.8" y="-8" width="3.6" height="11" fill="#4A6741" rx="1.8"/>
    <circle cx="0" cy="-8" r="5" fill="url(#centerClean)"/>
    <circle cx="0" cy="-8" r="3" fill="#4A6741"/>
    <circle cx="-1" cy="-9" r="1.2" fill="#FADCE5" opacity="0.9"/>
  </g>
</svg>
