<svg width="55" height="52" viewBox="0 0 55 52" fill="none" xmlns="http://www.w3.org/2000/svg">
<path fill-rule="evenodd" clip-rule="evenodd" d="M25.3115 0.0118906C25.7665 0.0711887 26.1546 0.342034 26.4619 0.700367C26.5893 0.84891 26.7135 0.976564 26.8652 1.14373C27.0076 1.30066 27.1603 1.47812 27.2929 1.67791C27.3523 1.7674 27.4772 1.77597 27.547 1.6943C27.5505 1.69021 27.554 1.68605 27.5576 1.68181C27.9916 1.1661 28.3871 0.751835 28.7666 0.473805C29.1501 0.192897 29.5685 0.0142915 30.0293 0.0616953C30.4811 0.108411 30.8681 0.363274 31.2177 0.704273C31.5656 1.04367 31.9247 1.51773 32.3203 2.10173C33.1344 3.04022 34.0107 4.06881 34.4138 5.36472C34.684 6.23316 34.8659 7.15417 34.872 8.06365C34.8735 8.28763 34.8639 8.51047 34.8545 8.71795C34.8448 8.92997 34.8357 9.12759 34.8369 9.32146L34.8359 9.6906C34.8361 9.81247 34.8368 9.93472 34.8369 10.0568C34.8372 10.5858 34.8375 11.1156 34.8379 11.6447C34.8381 12.0008 34.8386 12.3572 34.8388 12.7133C34.8388 12.724 34.8474 12.7326 34.8581 12.7326C34.8693 12.7326 34.8781 12.7421 34.8773 12.7533L34.8379 13.2697C34.7573 14.336 34.6943 15.5219 34.2108 16.6394C34.1643 16.7469 34.1412 16.8675 34.1017 16.9777C34.067 17.0747 34.0225 17.1649 33.9944 17.2641C33.8033 17.9375 33.4593 18.5205 33.125 19.0461C33.0985 19.0971 33.0698 19.1469 33.0474 19.1998C33.0034 19.3039 32.9593 19.4085 32.915 19.5129C32.8557 19.7019 32.7976 19.8914 32.7382 20.0802C32.7031 20.1922 32.829 20.2846 32.9247 20.2168L33.5595 19.7668C33.6462 19.6915 33.7348 19.6143 33.8218 19.5388C33.8656 19.5007 33.9047 19.4576 33.9453 19.4162C34.3358 18.9431 34.7769 18.4446 35.3451 18.0574C35.4486 17.9868 35.5369 17.8948 35.6406 17.8244C35.6835 17.7952 35.7291 17.7752 35.7735 17.7583C35.7741 17.7581 35.7746 17.7578 35.7751 17.7574C35.7763 17.7562 35.778 17.7545 35.7788 17.7536C35.779 17.7533 35.7795 17.7533 35.7798 17.7536C35.78 17.7539 35.7805 17.7539 35.7807 17.7536C36.4762 17.1009 37.2866 16.6884 38.0781 16.3478L38.0839 16.3459L38.9072 16.0041L38.9267 15.9963L38.9453 15.9904L41.9648 15.0119L42.4414 14.8586C42.516 14.8345 42.5905 14.8095 42.665 14.7853C42.8497 14.7266 43.0347 14.6559 43.2334 14.5812C43.4278 14.5081 43.637 14.4303 43.8505 14.3625C44.7146 14.0882 45.6435 13.9766 46.5499 13.9629C47.6962 13.9456 48.7619 14.3094 49.7519 14.7121L49.7558 14.714L50.3213 14.9504L50.7793 15.089L50.7861 15.091L51.2021 15.2306C51.5991 15.3733 51.9403 15.5261 52.2168 15.7004C52.5909 15.9362 52.8872 16.2383 53.0156 16.6525C53.1415 17.0597 53.0777 17.4865 52.9257 17.9103C52.7739 18.3338 52.5143 18.8095 52.1796 19.3469C52.1768 19.3515 52.1739 19.3561 52.1712 19.3606C52.1149 19.4525 52.1628 19.568 52.2666 19.5969C52.4975 19.6612 52.7127 19.7522 52.9062 19.839C53.1125 19.9316 53.272 20.0097 53.4531 20.0851C53.8893 20.2668 54.2661 20.553 54.4629 20.9679C54.6402 21.3421 54.6396 21.7523 54.499 22.1574L54.4296 22.3312C53.4961 24.4232 52.3063 26.5068 50.1152 27.7267C47.9495 28.9321 45.5687 29.6107 43.2529 30.1867C40.9842 30.7507 38.7139 30.6851 36.4853 30.2928C36.4311 30.2833 36.4002 30.3541 36.4443 30.3869C36.5712 30.4631 36.7065 30.5438 36.8351 30.6211C36.8363 30.6219 36.8375 30.6225 36.8389 30.623C36.8493 30.6271 36.8607 30.632 36.8726 30.6373C36.8733 30.6375 36.874 30.6371 36.874 30.6364C36.874 30.6357 36.8747 30.6352 36.8753 30.6355C37.4591 30.8654 38.0866 31.1363 38.6425 31.5718C38.7339 31.6434 38.8395 31.696 38.9316 31.7668C38.9724 31.7982 39.0053 31.8348 39.0351 31.8713C39.0371 31.8732 39.0393 31.8749 39.0417 31.8762C40.0654 32.4388 40.8075 33.2932 41.4791 34.086C41.4848 34.0928 41.4936 34.096 41.5023 34.0945C41.5116 34.093 41.5211 34.0968 41.5266 34.1045L43.5634 36.9113C43.6353 37.0104 43.7076 37.1102 43.7793 37.2092L43.9957 37.5084C43.9959 37.5087 43.9963 37.5087 43.9965 37.5085C43.9968 37.5082 43.9972 37.5083 43.9974 37.5085C44.1103 37.6658 44.2329 37.8199 44.3652 37.9855C44.4949 38.1478 44.635 38.322 44.7656 38.5041C45.2943 39.2415 45.6875 40.0914 45.9799 40.9503C46.4205 42.2441 46.3138 43.601 46.206 44.8459L46.2148 45.3195C46.2155 45.3241 46.2158 45.3287 46.2157 45.3332L46.2099 45.7648C46.1969 46.1865 46.1583 46.5584 46.0781 46.8752C45.9694 47.304 45.7734 47.6798 45.4189 47.9299C45.0706 48.1754 44.6444 48.2452 44.1943 48.2316C43.7447 48.218 43.2119 48.1192 42.5976 47.967C42.5922 47.9656 42.5869 47.9643 42.5816 47.9631C42.4771 47.9381 42.3821 48.0188 42.3867 48.1261C42.3969 48.3658 42.3773 48.5988 42.3545 48.8097C42.3301 49.0346 42.3058 49.2107 42.29 49.4064C42.2521 49.8772 42.0962 50.3236 41.7627 50.6388C41.4615 50.9232 41.0704 51.0488 40.6416 51.0402L40.455 51.0285C38.177 50.7871 35.8275 50.2999 33.9902 48.5929C32.1743 46.9055 30.7928 44.8501 29.5293 42.8254C27.812 40.0728 27.245 36.9431 27.0996 33.7951C27.0975 33.7835 27.0811 33.7835 27.0791 33.7951C26.9336 36.9431 26.3667 40.0728 24.6494 42.8254C23.3858 44.8501 22.0043 46.9055 20.1884 48.5929C18.3511 50.2999 16.0016 50.7871 13.7236 51.0285L13.5371 51.0402C13.1082 51.0488 12.7171 50.9232 12.416 50.6388C12.0824 50.3236 11.9266 49.8772 11.8886 49.4064C11.8728 49.2107 11.8485 49.0346 11.8242 48.8097C11.8014 48.5988 11.7817 48.3658 11.792 48.1261C11.7965 48.0188 11.7015 47.9381 11.5971 47.9631C11.5918 47.9643 11.5864 47.9656 11.581 47.967C10.9665 48.1192 10.4331 48.218 9.98336 48.2316C9.53345 48.2451 9.10796 48.1753 8.75973 47.9299C8.40518 47.6798 8.20924 47.304 8.10055 46.8752C8.02029 46.5584 7.98073 46.1865 7.96774 45.7648L7.96293 45.3332C7.96288 45.3287 7.96318 45.3241 7.96383 45.3195L7.97262 44.8459C7.86485 43.601 7.75816 42.2441 8.19869 40.9503C8.49115 40.0914 8.88434 39.2415 9.41305 38.5041C9.54365 38.322 9.68377 38.1478 9.81344 37.9855C9.94576 37.8199 10.0684 37.6658 10.1812 37.5085C10.1814 37.5083 10.1818 37.5082 10.1821 37.5085C10.1823 37.5087 10.1828 37.5087 10.183 37.5084L10.3994 37.2092C10.4711 37.1102 10.5434 37.0104 10.6152 36.9113L12.652 34.1045C12.6576 34.0968 12.667 34.093 12.6764 34.0945C12.6851 34.096 12.6939 34.0928 12.6996 34.086C13.3711 33.2932 14.1132 32.4388 15.1369 31.8762C15.1394 31.8749 15.1416 31.8732 15.1435 31.8713C15.1733 31.8348 15.2063 31.7981 15.247 31.7668C15.3392 31.696 15.4447 31.6434 15.5362 31.5718C16.0921 31.1363 16.7195 30.8653 17.3033 30.6355C17.304 30.6352 17.3046 30.6357 17.3046 30.6364C17.3046 30.6371 17.3054 30.6375 17.306 30.6373C17.3179 30.632 17.3293 30.6271 17.3398 30.623C17.3411 30.6225 17.3424 30.6219 17.3436 30.6211C17.345 30.6203 17.3464 30.6194 17.3479 30.6186C17.4259 30.5716 17.3827 30.4487 17.2923 30.4598C15.4255 30.6883 13.5349 30.6563 11.6455 30.1867C9.32947 29.6107 6.94807 28.9322 4.78219 27.7267C2.59103 26.5068 1.40128 24.4232 0.467736 22.3312L0.3984 22.1574C0.25779 21.7523 0.25723 21.3421 0.434533 20.9679C0.631242 20.553 1.00809 20.2668 1.4443 20.0851C1.6254 20.0097 1.78494 19.9316 1.99117 19.839C2.18467 19.7522 2.39988 19.6612 2.63082 19.5969C2.73463 19.568 2.78244 19.4525 2.72621 19.3606C2.72344 19.3561 2.72062 19.3515 2.71774 19.3469C2.36135 18.7746 2.08949 18.2702 1.94235 17.8234C1.79367 17.3717 1.75272 16.9189 1.94039 16.4953C2.12449 16.0801 2.48566 15.7907 2.91793 15.5636C3.3468 15.3384 3.90633 15.1435 4.58102 14.9484C5.72874 14.4625 6.98215 13.9445 8.34426 13.9633C9.25142 13.9759 10.1811 14.087 11.0459 14.3615C11.2595 14.4293 11.4686 14.5081 11.663 14.5812C11.8614 14.6558 12.0463 14.7254 12.2307 14.7841C12.231 14.7842 12.2311 14.7846 12.2309 14.7848C12.2307 14.7851 12.2308 14.7854 12.2311 14.7855L12.583 14.8996C12.6993 14.9372 12.8171 14.9742 12.9336 15.0119L13.1298 15.0763C13.831 15.3037 14.5562 15.5402 15.2663 15.7705C15.2799 15.7749 15.2939 15.7648 15.2939 15.7504C15.2939 15.7354 15.3091 15.7252 15.323 15.7309L15.9873 16.0031L16.1378 16.0527C16.1439 16.0547 16.1489 16.0592 16.1515 16.0651C16.1539 16.0704 16.1582 16.0746 16.1637 16.0769C17.1149 16.4659 18.1548 16.892 19.0165 17.6596C19.089 17.7242 19.1755 17.7707 19.2558 17.8254C19.3612 17.8972 19.4517 17.9904 19.5571 18.0623C20.1225 18.4487 20.5618 18.9446 20.9511 19.4162C20.9913 19.4568 21.0295 19.4995 21.0726 19.5369C21.1612 19.614 21.25 19.6914 21.3379 19.7677C21.5489 19.9177 21.8276 19.6719 21.7126 19.44C20.8001 17.601 20.1564 15.6419 20.0068 13.5236C19.8389 11.1426 19.7482 8.66736 20.2255 6.23455C20.7087 3.77373 22.3234 1.9993 24.0244 0.465016L24.1679 0.345875C24.5099 0.0867591 24.9008 -0.0413609 25.3115 0.0118906ZM45.7568 44.1877L45.788 43.6711C45.7889 43.6512 45.7882 43.6313 45.789 43.6115C45.7812 43.803 45.7707 43.9952 45.7568 44.1877ZM30.0932 25.0288C30.1456 24.6074 29.5198 24.1666 29.1435 24.3634C29.0867 24.3931 29.029 24.4216 28.9704 24.4489C28.9415 24.4624 28.9139 24.4787 28.8881 24.4975C28.3974 24.8557 27.8771 25.019 27.3447 24.9992C26.7879 24.9783 26.264 24.7625 25.7929 24.4552C25.7655 24.4373 25.7381 24.4193 25.7108 24.4011C25.3289 24.1465 24.7479 24.5714 24.8048 25.0269C24.8086 25.0577 24.8155 25.0902 24.8254 25.1197L24.8603 25.2238L24.8652 25.2424C25.0298 25.8205 24.9936 26.3619 24.79 26.8508C24.59 27.3305 24.2418 27.7305 23.831 28.0617C23.7808 28.1022 23.7299 28.1422 23.6785 28.1818C23.4831 28.3324 23.5789 28.6718 23.821 28.7191C23.8396 28.7227 23.8592 28.7245 23.8782 28.7243C24.5015 28.7159 25.0306 28.8931 25.458 29.2287C25.8415 29.5299 26.1164 29.9369 26.3134 30.3859L26.3935 30.5802C26.6379 31.221 27.5408 31.221 27.7851 30.5802L27.8652 30.3859C28.0623 29.9369 28.3372 29.5299 28.7207 29.2287C29.1442 28.8962 29.6675 28.7192 30.2834 28.7241C30.3137 28.7243 30.344 28.7217 30.3738 28.716C30.5402 28.6841 30.7061 28.6631 30.8709 28.6505C31.1483 28.6293 31.283 28.2363 31.0664 28.0617C30.6287 27.7087 30.2622 27.2771 30.0703 26.7541C29.8854 26.2495 29.8798 25.6988 30.0738 25.1158C30.0829 25.0883 30.0897 25.0577 30.0932 25.0288ZM18.9765 18.2404C19.0009 18.2576 19.0195 18.2825 19.0332 18.3156L19.0299 18.3097C19.0158 18.2837 19.0006 18.2575 18.9765 18.2404ZM35.9765 18.216C35.9739 18.2165 35.9713 18.2173 35.9687 18.2179C35.9834 18.2142 35.9995 18.2121 36.0166 18.2121L35.9765 18.216ZM16.2959 16.5051C16.2956 16.508 16.2951 16.5109 16.2949 16.5129C16.2949 16.5129 16.2957 16.5091 16.2959 16.507C16.2961 16.5033 16.2966 16.4983 16.2968 16.4924C16.2966 16.4973 16.2961 16.5017 16.2959 16.5051ZM10.1093 14.4806C10.1102 14.4827 10.1111 14.4859 10.1113 14.4864C10.1113 14.4865 10.1113 14.4865 10.1113 14.4866C10.1116 14.487 10.1123 14.4867 10.1121 14.4862C10.1116 14.4848 10.111 14.4832 10.1103 14.4816C10.1085 14.4772 10.1053 14.4691 10.1006 14.4594C10.1006 14.4592 10.1005 14.4591 10.1003 14.4591C10.0998 14.4588 10.0992 14.4594 10.0994 14.4599C10.1037 14.4689 10.1075 14.4762 10.1093 14.4806ZM10.0615 14.3937C10.0629 14.3958 10.0654 14.3986 10.0654 14.3986L10.0673 14.4006C10.0673 14.4006 10.0637 14.397 10.0615 14.3937C10.0589 14.3899 10.0549 14.3833 10.0488 14.3752L10.0615 14.3937ZM10.0166 14.3371C10.0204 14.3413 10.024 14.3459 10.0273 14.3498C10.0247 14.3467 10.0224 14.3424 10.0195 14.339C10.0097 14.3283 9.99562 14.3152 9.97945 14.301C9.99456 14.3144 10.0072 14.3267 10.0166 14.3371ZM34.7431 9.03237C34.7429 9.03214 34.7425 9.03244 34.7427 9.03271L34.747 9.03923C34.7454 9.03675 34.7434 9.03284 34.7431 9.03243C34.7431 9.03241 34.7431 9.03239 34.7431 9.03237ZM34.5234 7.15642C34.5178 7.16288 34.5127 7.16782 34.5097 7.17107C34.5074 7.17364 34.5048 7.17693 34.5048 7.17693L34.5078 7.174C34.5101 7.17153 34.5145 7.16701 34.5195 7.1613C34.5246 7.15543 34.5316 7.1466 34.539 7.13689C34.5462 7.12741 34.5546 7.11579 34.5631 7.10219C34.5633 7.10193 34.5633 7.10157 34.5631 7.10135C34.5627 7.10104 34.5622 7.1011 34.562 7.10146C34.5463 7.12553 34.5331 7.14509 34.5234 7.15642ZM34.58 7.07244C34.5813 7.07012 34.5835 7.06733 34.5859 7.06269C34.5859 7.06268 34.5859 7.06267 34.5859 7.06265C34.586 7.06238 34.5856 7.0622 34.5855 7.06246C34.5832 7.06665 34.5813 7.07019 34.58 7.07244ZM20.6357 6.77459C20.6292 6.81323 20.6243 6.85212 20.6181 6.8908C20.648 6.70401 20.6802 6.51737 20.7168 6.33123C20.6878 6.47883 20.6605 6.62658 20.6357 6.77459Z" fill="url(#paint0_linear_309_24862)"/>
<path fill-rule="evenodd" clip-rule="evenodd" d="M25.3115 0.0118906C25.7665 0.0711887 26.1546 0.342034 26.4619 0.700367C26.5893 0.84891 26.7135 0.976564 26.8652 1.14373C27.0076 1.30066 27.1603 1.47812 27.2929 1.67791C27.3523 1.7674 27.4772 1.77597 27.547 1.6943C27.5505 1.69021 27.554 1.68605 27.5576 1.68181C27.9916 1.1661 28.3871 0.751835 28.7666 0.473805C29.1501 0.192897 29.5685 0.0142915 30.0293 0.0616953C30.4811 0.108411 30.8681 0.363274 31.2177 0.704273C31.5656 1.04367 31.9247 1.51773 32.3203 2.10173C33.1344 3.04022 34.0107 4.06881 34.4138 5.36472C34.684 6.23316 34.8659 7.15417 34.872 8.06365C34.8735 8.28763 34.8639 8.51047 34.8545 8.71795C34.8448 8.92997 34.8357 9.12759 34.8369 9.32146L34.8359 9.6906C34.8361 9.81247 34.8368 9.93472 34.8369 10.0568C34.8372 10.5858 34.8375 11.1156 34.8379 11.6447C34.8381 12.0008 34.8386 12.3572 34.8388 12.7133C34.8388 12.724 34.8474 12.7326 34.8581 12.7326C34.8693 12.7326 34.8781 12.7421 34.8773 12.7533L34.8379 13.2697C34.7573 14.336 34.6943 15.5219 34.2108 16.6394C34.1643 16.7469 34.1412 16.8675 34.1017 16.9777C34.067 17.0747 34.0225 17.1649 33.9944 17.2641C33.8033 17.9375 33.4593 18.5205 33.125 19.0461C33.0985 19.0971 33.0698 19.1469 33.0474 19.1998C33.0034 19.3039 32.9593 19.4085 32.915 19.5129C32.8557 19.7019 32.7976 19.8914 32.7382 20.0802C32.7031 20.1922 32.829 20.2846 32.9247 20.2168L33.5595 19.7668C33.6462 19.6915 33.7348 19.6143 33.8218 19.5388C33.8656 19.5007 33.9047 19.4576 33.9453 19.4162C34.3358 18.9431 34.7769 18.4446 35.3451 18.0574C35.4486 17.9868 35.5369 17.8948 35.6406 17.8244C35.6835 17.7952 35.7291 17.7752 35.7735 17.7583C35.7741 17.7581 35.7746 17.7578 35.7751 17.7574C35.7763 17.7562 35.778 17.7545 35.7788 17.7536C35.779 17.7533 35.7795 17.7533 35.7798 17.7536C35.78 17.7539 35.7805 17.7539 35.7807 17.7536C36.4762 17.1009 37.2866 16.6884 38.0781 16.3478L38.0839 16.3459L38.9072 16.0041L38.9267 15.9963L38.9453 15.9904L41.9648 15.0119L42.4414 14.8586C42.516 14.8345 42.5905 14.8095 42.665 14.7853C42.8497 14.7266 43.0347 14.6559 43.2334 14.5812C43.4278 14.5081 43.637 14.4303 43.8505 14.3625C44.7146 14.0882 45.6435 13.9766 46.5499 13.9629C47.6962 13.9456 48.7619 14.3094 49.7519 14.7121L49.7558 14.714L50.3213 14.9504L50.7793 15.089L50.7861 15.091L51.2021 15.2306C51.5991 15.3733 51.9403 15.5261 52.2168 15.7004C52.5909 15.9362 52.8872 16.2383 53.0156 16.6525C53.1415 17.0597 53.0777 17.4865 52.9257 17.9103C52.7739 18.3338 52.5143 18.8095 52.1796 19.3469C52.1768 19.3515 52.1739 19.3561 52.1712 19.3606C52.1149 19.4525 52.1628 19.568 52.2666 19.5969C52.4975 19.6612 52.7127 19.7522 52.9062 19.839C53.1125 19.9316 53.272 20.0097 53.4531 20.0851C53.8893 20.2668 54.2661 20.553 54.4629 20.9679C54.6402 21.3421 54.6396 21.7523 54.499 22.1574L54.4296 22.3312C53.4961 24.4232 52.3063 26.5068 50.1152 27.7267C47.9495 28.9321 45.5687 29.6107 43.2529 30.1867C40.9842 30.7507 38.7139 30.6851 36.4853 30.2928C36.4311 30.2833 36.4002 30.3541 36.4443 30.3869C36.5712 30.4631 36.7065 30.5438 36.8351 30.6211C36.8363 30.6219 36.8375 30.6225 36.8389 30.623C36.8493 30.6271 36.8607 30.632 36.8726 30.6373C36.8733 30.6375 36.874 30.6371 36.874 30.6364C36.874 30.6357 36.8747 30.6352 36.8753 30.6355C37.4591 30.8654 38.0866 31.1363 38.6425 31.5718C38.7339 31.6434 38.8395 31.696 38.9316 31.7668C38.9724 31.7982 39.0053 31.8348 39.0351 31.8713C39.0371 31.8732 39.0393 31.8749 39.0417 31.8762C40.0654 32.4388 40.8075 33.2932 41.4791 34.086C41.4848 34.0928 41.4936 34.096 41.5023 34.0945C41.5116 34.093 41.5211 34.0968 41.5266 34.1045L43.5634 36.9113C43.6353 37.0104 43.7076 37.1102 43.7793 37.2092L43.9957 37.5084C43.9959 37.5087 43.9963 37.5087 43.9965 37.5085C43.9968 37.5082 43.9972 37.5083 43.9974 37.5085C44.1103 37.6658 44.2329 37.8199 44.3652 37.9855C44.4949 38.1478 44.635 38.322 44.7656 38.5041C45.2943 39.2415 45.6875 40.0914 45.9799 40.9503C46.4205 42.2441 46.3138 43.601 46.206 44.8459L46.2148 45.3195C46.2155 45.3241 46.2158 45.3287 46.2157 45.3332L46.2099 45.7648C46.1969 46.1865 46.1583 46.5584 46.0781 46.8752C45.9694 47.304 45.7734 47.6798 45.4189 47.9299C45.0706 48.1754 44.6444 48.2452 44.1943 48.2316C43.7447 48.218 43.2119 48.1192 42.5976 47.967C42.5922 47.9656 42.5869 47.9643 42.5816 47.9631C42.4771 47.9381 42.3821 48.0188 42.3867 48.1261C42.3969 48.3658 42.3773 48.5988 42.3545 48.8097C42.3301 49.0346 42.3058 49.2107 42.29 49.4064C42.2521 49.8772 42.0962 50.3236 41.7627 50.6388C41.4615 50.9232 41.0704 51.0488 40.6416 51.0402L40.455 51.0285C38.177 50.7871 35.8275 50.2999 33.9902 48.5929C32.1743 46.9055 30.7928 44.8501 29.5293 42.8254C27.812 40.0728 27.245 36.9431 27.0996 33.7951C27.0975 33.7835 27.0811 33.7835 27.0791 33.7951C26.9336 36.9431 26.3667 40.0728 24.6494 42.8254C23.3858 44.8501 22.0043 46.9055 20.1884 48.5929C18.3511 50.2999 16.0016 50.7871 13.7236 51.0285L13.5371 51.0402C13.1082 51.0488 12.7171 50.9232 12.416 50.6388C12.0824 50.3236 11.9266 49.8772 11.8886 49.4064C11.8728 49.2107 11.8485 49.0346 11.8242 48.8097C11.8014 48.5988 11.7817 48.3658 11.792 48.1261C11.7965 48.0188 11.7015 47.9381 11.5971 47.9631C11.5918 47.9643 11.5864 47.9656 11.581 47.967C10.9665 48.1192 10.4331 48.218 9.98336 48.2316C9.53345 48.2451 9.10796 48.1753 8.75973 47.9299C8.40518 47.6798 8.20924 47.304 8.10055 46.8752C8.02029 46.5584 7.98073 46.1865 7.96774 45.7648L7.96293 45.3332C7.96288 45.3287 7.96318 45.3241 7.96383 45.3195L7.97262 44.8459C7.86485 43.601 7.75816 42.2441 8.19869 40.9503C8.49115 40.0914 8.88434 39.2415 9.41305 38.5041C9.54365 38.322 9.68377 38.1478 9.81344 37.9855C9.94576 37.8199 10.0684 37.6658 10.1812 37.5085C10.1814 37.5083 10.1818 37.5082 10.1821 37.5085C10.1823 37.5087 10.1828 37.5087 10.183 37.5084L10.3994 37.2092C10.4711 37.1102 10.5434 37.0104 10.6152 36.9113L12.652 34.1045C12.6576 34.0968 12.667 34.093 12.6764 34.0945C12.6851 34.096 12.6939 34.0928 12.6996 34.086C13.3711 33.2932 14.1132 32.4388 15.1369 31.8762C15.1394 31.8749 15.1416 31.8732 15.1435 31.8713C15.1733 31.8348 15.2063 31.7981 15.247 31.7668C15.3392 31.696 15.4447 31.6434 15.5362 31.5718C16.0921 31.1363 16.7195 30.8653 17.3033 30.6355C17.304 30.6352 17.3046 30.6357 17.3046 30.6364C17.3046 30.6371 17.3054 30.6375 17.306 30.6373C17.3179 30.632 17.3293 30.6271 17.3398 30.623C17.3411 30.6225 17.3424 30.6219 17.3436 30.6211C17.345 30.6203 17.3464 30.6194 17.3479 30.6186C17.4259 30.5716 17.3827 30.4487 17.2923 30.4598C15.4255 30.6883 13.5349 30.6563 11.6455 30.1867C9.32947 29.6107 6.94807 28.9322 4.78219 27.7267C2.59103 26.5068 1.40128 24.4232 0.467736 22.3312L0.3984 22.1574C0.25779 21.7523 0.25723 21.3421 0.434533 20.9679C0.631242 20.553 1.00809 20.2668 1.4443 20.0851C1.6254 20.0097 1.78494 19.9316 1.99117 19.839C2.18467 19.7522 2.39988 19.6612 2.63082 19.5969C2.73463 19.568 2.78244 19.4525 2.72621 19.3606C2.72344 19.3561 2.72062 19.3515 2.71774 19.3469C2.36135 18.7746 2.08949 18.2702 1.94235 17.8234C1.79367 17.3717 1.75272 16.9189 1.94039 16.4953C2.12449 16.0801 2.48566 15.7907 2.91793 15.5636C3.3468 15.3384 3.90633 15.1435 4.58102 14.9484C5.72874 14.4625 6.98215 13.9445 8.34426 13.9633C9.25142 13.9759 10.1811 14.087 11.0459 14.3615C11.2595 14.4293 11.4686 14.5081 11.663 14.5812C11.8614 14.6558 12.0463 14.7254 12.2307 14.7841C12.231 14.7842 12.2311 14.7846 12.2309 14.7848C12.2307 14.7851 12.2308 14.7854 12.2311 14.7855L12.583 14.8996C12.6993 14.9372 12.8171 14.9742 12.9336 15.0119L13.1298 15.0763C13.831 15.3037 14.5562 15.5402 15.2663 15.7705C15.2799 15.7749 15.2939 15.7648 15.2939 15.7504C15.2939 15.7354 15.3091 15.7252 15.323 15.7309L15.9873 16.0031L16.1378 16.0527C16.1439 16.0547 16.1489 16.0592 16.1515 16.0651C16.1539 16.0704 16.1582 16.0746 16.1637 16.0769C17.1149 16.4659 18.1548 16.892 19.0165 17.6596C19.089 17.7242 19.1755 17.7707 19.2558 17.8254C19.3612 17.8972 19.4517 17.9904 19.5571 18.0623C20.1225 18.4487 20.5618 18.9446 20.9511 19.4162C20.9913 19.4568 21.0295 19.4995 21.0726 19.5369C21.1612 19.614 21.25 19.6914 21.3379 19.7677C21.5489 19.9177 21.8276 19.6719 21.7126 19.44C20.8001 17.601 20.1564 15.6419 20.0068 13.5236C19.8389 11.1426 19.7482 8.66736 20.2255 6.23455C20.7087 3.77373 22.3234 1.9993 24.0244 0.465016L24.1679 0.345875C24.5099 0.0867591 24.9008 -0.0413609 25.3115 0.0118906ZM45.7568 44.1877L45.788 43.6711C45.7889 43.6512 45.7882 43.6313 45.789 43.6115C45.7812 43.803 45.7707 43.9952 45.7568 44.1877ZM30.0932 25.0288C30.1456 24.6074 29.5198 24.1666 29.1435 24.3634C29.0867 24.3931 29.029 24.4216 28.9704 24.4489C28.9415 24.4624 28.9139 24.4787 28.8881 24.4975C28.3974 24.8557 27.8771 25.019 27.3447 24.9992C26.7879 24.9783 26.264 24.7625 25.7929 24.4552C25.7655 24.4373 25.7381 24.4193 25.7108 24.4011C25.3289 24.1465 24.7479 24.5714 24.8048 25.0269C24.8086 25.0577 24.8155 25.0902 24.8254 25.1197L24.8603 25.2238L24.8652 25.2424C25.0298 25.8205 24.9936 26.3619 24.79 26.8508C24.59 27.3305 24.2418 27.7305 23.831 28.0617C23.7808 28.1022 23.7299 28.1422 23.6785 28.1818C23.4831 28.3324 23.5789 28.6718 23.821 28.7191C23.8396 28.7227 23.8592 28.7245 23.8782 28.7243C24.5015 28.7159 25.0306 28.8931 25.458 29.2287C25.8415 29.5299 26.1164 29.9369 26.3134 30.3859L26.3935 30.5802C26.6379 31.221 27.5408 31.221 27.7851 30.5802L27.8652 30.3859C28.0623 29.9369 28.3372 29.5299 28.7207 29.2287C29.1442 28.8962 29.6675 28.7192 30.2834 28.7241C30.3137 28.7243 30.344 28.7217 30.3738 28.716C30.5402 28.6841 30.7061 28.6631 30.8709 28.6505C31.1483 28.6293 31.283 28.2363 31.0664 28.0617C30.6287 27.7087 30.2622 27.2771 30.0703 26.7541C29.8854 26.2495 29.8798 25.6988 30.0738 25.1158C30.0829 25.0883 30.0897 25.0577 30.0932 25.0288ZM18.9765 18.2404C19.0009 18.2576 19.0195 18.2825 19.0332 18.3156L19.0299 18.3097C19.0158 18.2837 19.0006 18.2575 18.9765 18.2404ZM35.9765 18.216C35.9739 18.2165 35.9713 18.2173 35.9687 18.2179C35.9834 18.2142 35.9995 18.2121 36.0166 18.2121L35.9765 18.216ZM16.2959 16.5051C16.2956 16.508 16.2951 16.5109 16.2949 16.5129C16.2949 16.5129 16.2957 16.5091 16.2959 16.507C16.2961 16.5033 16.2966 16.4983 16.2968 16.4924C16.2966 16.4973 16.2961 16.5017 16.2959 16.5051ZM10.1093 14.4806C10.1102 14.4827 10.1111 14.4859 10.1113 14.4864C10.1113 14.4865 10.1113 14.4865 10.1113 14.4866C10.1116 14.487 10.1123 14.4867 10.1121 14.4862C10.1116 14.4848 10.111 14.4832 10.1103 14.4816C10.1085 14.4772 10.1053 14.4691 10.1006 14.4594C10.1006 14.4592 10.1005 14.4591 10.1003 14.4591C10.0998 14.4588 10.0992 14.4594 10.0994 14.4599C10.1037 14.4689 10.1075 14.4762 10.1093 14.4806ZM10.0615 14.3937C10.0629 14.3958 10.0654 14.3986 10.0654 14.3986L10.0673 14.4006C10.0673 14.4006 10.0637 14.397 10.0615 14.3937C10.0589 14.3899 10.0549 14.3833 10.0488 14.3752L10.0615 14.3937ZM10.0166 14.3371C10.0204 14.3413 10.024 14.3459 10.0273 14.3498C10.0247 14.3467 10.0224 14.3424 10.0195 14.339C10.0097 14.3283 9.99562 14.3152 9.97945 14.301C9.99456 14.3144 10.0072 14.3267 10.0166 14.3371ZM34.7431 9.03237C34.7429 9.03214 34.7425 9.03244 34.7427 9.03271L34.747 9.03923C34.7454 9.03675 34.7434 9.03284 34.7431 9.03243C34.7431 9.03241 34.7431 9.03239 34.7431 9.03237ZM34.5234 7.15642C34.5178 7.16288 34.5127 7.16782 34.5097 7.17107C34.5074 7.17364 34.5048 7.17693 34.5048 7.17693L34.5078 7.174C34.5101 7.17153 34.5145 7.16701 34.5195 7.1613C34.5246 7.15543 34.5316 7.1466 34.539 7.13689C34.5462 7.12741 34.5546 7.11579 34.5631 7.10219C34.5633 7.10193 34.5633 7.10157 34.5631 7.10135C34.5627 7.10104 34.5622 7.1011 34.562 7.10146C34.5463 7.12553 34.5331 7.14509 34.5234 7.15642ZM34.58 7.07244C34.5813 7.07012 34.5835 7.06733 34.5859 7.06269C34.5859 7.06268 34.5859 7.06267 34.5859 7.06265C34.586 7.06238 34.5856 7.0622 34.5855 7.06246C34.5832 7.06665 34.5813 7.07019 34.58 7.07244ZM20.6357 6.77459C20.6292 6.81323 20.6243 6.85212 20.6181 6.8908C20.648 6.70401 20.6802 6.51737 20.7168 6.33123C20.6878 6.47883 20.6605 6.62658 20.6357 6.77459Z" fill="#F2B5C4" fill-opacity="0.5"/>
<path d="M30.6553 23.2266C30.1663 23.6757 29.6142 24.1588 28.9268 24.4688C28.4248 24.8468 27.8911 25.0193 27.3447 24.999C26.7879 24.9782 26.264 24.7623 25.793 24.4551C25.2703 24.114 24.7681 23.7149 24.2891 23.334C24.5214 23.8625 24.7393 24.4421 24.8105 25.0752L24.8604 25.2236L24.8652 25.2422C25.0298 25.8203 24.9936 26.3618 24.79 26.8506C24.59 27.3304 24.2418 27.7303 23.8311 28.0615C23.58 28.2639 23.314 28.4535 23.0469 28.6387C23.3113 28.6457 23.5799 28.6698 23.8496 28.7246C24.4853 28.7104 25.0241 28.8878 25.458 29.2285C25.8415 29.5297 26.1164 29.9367 26.3135 30.3857L26.3936 30.5801C26.6778 31.3254 26.8802 32.1274 27.0889 32.8545C27.2975 32.1273 27.5009 31.3255 27.7852 30.5801L27.8652 30.3857C28.0623 29.9367 28.3372 29.5297 28.7207 29.2285C29.1546 28.8878 29.6934 28.7104 30.3291 28.7246C30.8583 28.6171 31.3833 28.6212 31.8809 28.6602C31.6034 28.4685 31.327 28.2716 31.0664 28.0615C30.6287 27.7085 30.2622 27.277 30.0703 26.7539C29.881 26.2374 29.8796 25.6725 30.0879 25.0742C30.1641 24.3985 30.4057 23.7834 30.6553 23.2266Z" stroke="#F2B5C4" stroke-width="0.5"/>
<path d="M28.6809 20.5235C29.431 21.2155 28.375 23.2495 27.5037 22.718C26.9082 22.4595 26.4132 22.1393 26.6683 21.3581C26.8431 20.5602 27.1253 19.8857 28.1529 20.2324C28.3842 20.3105 28.5566 20.4089 28.6809 20.5235Z" fill="#FDF6F7"/>
<path d="M31.7807 24.0385C31.6664 23.9755 31.5761 23.876 31.4666 23.8051C31.3082 23.7023 31.1624 23.5895 31.0773 23.4279C30.9797 23.2428 31.0537 23.0242 31.1553 22.8414C31.3268 22.533 31.6412 22.2796 31.9792 22.3809C32.2906 22.4743 32.5359 22.7001 32.7196 22.9955C32.8993 23.2847 32.7476 23.5039 32.5601 23.704C32.4361 23.8365 32.3325 24.0089 32.1595 24.0637C32.0943 24.0844 32.0236 24.0888 31.9496 24.0836C31.8911 24.0796 31.832 24.0668 31.7807 24.0385Z" fill="#FBEBF0"/>
<path d="M32.1606 25.4665C32.2216 25.4772 32.2845 25.4729 32.3418 25.4496C32.5543 25.3632 32.7813 25.5374 32.7527 25.7651C32.7452 25.8242 32.7378 25.8834 32.7303 25.9425C32.7269 25.9698 32.7266 25.9974 32.7272 26.0249C32.7301 26.1642 32.692 26.2934 32.6207 26.4155C32.5611 26.5013 32.4884 26.5737 32.4068 26.6385C32.051 26.8754 31.7063 27.147 31.2314 27.0323C31.0144 26.9589 30.8686 26.7582 30.7806 26.5467C30.6331 26.1919 30.666 25.8755 31.0465 25.633C31.1578 25.562 31.2838 25.5171 31.4128 25.4893C31.6594 25.4362 31.9086 25.4226 32.1606 25.4665Z" fill="#FAE9EE"/>
<path d="M23.1979 23.2346C23.8151 23.4055 22.6652 24.0326 22.3797 24.6059C22.2474 24.8715 22.1602 25.179 21.9818 25.4018C21.8242 25.5987 21.4856 25.5967 21.4178 25.3538C21.3929 25.2641 21.388 25.1625 21.3576 25.0746C21.3002 24.9084 21.2375 24.7432 21.2107 24.5722C21.1363 24.0986 20.9686 23.4578 21.4704 23.2632C21.9816 23.0647 22.657 23.0845 23.1979 23.2346Z" fill="#FDF3F5"/>
<path d="M24.4723 20.7649C25.2095 20.7403 25.186 21.8544 24.4738 22.0467C24.3821 22.0715 24.29 22.0954 24.2016 22.1239C23.8214 22.2465 23.6405 22.0354 23.6263 21.6851C23.6033 21.112 23.8898 20.7842 24.4723 20.7649Z" fill="#FCF0F2"/>
<path d="M23.2383 26.9973C22.5668 27.3221 21.7839 26.397 22.4221 26.0109C22.5384 25.9406 22.6677 25.8793 22.7997 25.8199C22.8617 25.792 22.9293 25.7792 22.9972 25.7818C23.1931 25.7895 23.3631 25.9243 23.4044 26.1159C23.512 26.6143 23.4909 26.8751 23.2383 26.9973Z" fill="#FBE4E8"/>
<path d="M28.6229 23.8199C28.6882 24.1742 28.6109 24.6441 28.2512 24.6649C28.0954 24.674 27.938 24.6017 27.7876 24.4382C27.48 24.1041 27.5169 23.6561 27.6823 23.2966C27.7661 23.1144 27.8755 23.0502 27.9957 23.0489C28.3566 23.0448 28.5575 23.465 28.6229 23.8199Z" fill="#FBE6EA"/>
<path d="M29.2319 24.5092C29.226 24.4727 29.2315 24.432 29.2528 24.4017C29.3602 24.2494 29.3537 23.9897 29.6112 23.9907C29.8063 23.9914 29.8299 24.1748 29.8061 24.3147C29.7556 24.61 29.5542 24.6467 29.331 24.6345C29.2736 24.6313 29.2411 24.5661 29.2319 24.5092Z" fill="#FCEDF0"/>
<path d="M21.8807 29.8669C21.8169 29.9529 21.7085 29.9923 21.6145 30.0434C21.1867 30.2756 20.7991 30.1604 20.4678 29.7827C20.0433 29.2984 20.0122 28.7071 20.2145 28.1451C20.5375 27.2483 22.3411 27.9798 22.1693 28.9173C22.1292 29.1362 22.0464 29.3652 21.9716 29.5923C21.9414 29.684 21.9382 29.7893 21.8807 29.8669Z" fill="#FDF9FA"/>
<path d="M25.5658 26.1698C25.584 26.5543 25.4499 27.1118 25.0804 27.0038C24.4621 26.823 23.8376 25.9371 24.0674 25.3353C24.1152 25.2102 24.1931 25.0992 24.3154 25.0103C24.6754 24.7486 25.1866 24.6478 25.5931 24.3794C25.7565 24.2716 25.9815 24.3655 26.0548 24.5572C26.1763 24.8746 25.9812 25.0886 25.8073 25.3067C25.7424 25.3879 25.6875 25.4772 25.6518 25.5748C25.5796 25.772 25.5563 25.9705 25.5658 26.1698Z" fill="#F8DFE7"/>
<path d="M30.5071 32.04C30.3941 32.2015 30.2085 32.2869 30.0244 32.3572C29.548 32.5391 29.1295 32.1624 29.2577 31.6688C29.3358 31.368 29.4523 31.0737 29.509 30.7695C29.5242 30.688 29.5429 30.6173 29.5648 30.5565C29.8085 29.88 30.7358 30.8588 30.6754 31.5753C30.6621 31.7337 30.6126 31.8892 30.5071 32.04Z" fill="#FAE8ED"/>
<path d="M27.3849 29.7334C27.3991 30.1642 27.1372 30.398 26.7691 30.3795C26.2383 30.353 25.8479 30.0808 25.8142 29.4787C25.7926 29.0953 25.9818 28.9335 26.3551 28.9438C26.8944 28.9591 27.3183 29.1142 27.3849 29.7334Z" fill="#FBEBEF"/>
<path d="M26.2091 31.3993C26.4896 31.9953 24.6955 32.063 24.5175 31.4287C24.4966 31.354 24.4933 31.2572 24.5137 31.1311C24.5657 30.8105 24.6096 30.1789 25.0481 30.3288C25.5163 30.4888 25.9965 30.9475 26.2091 31.3993Z" fill="#FCEDF1"/>
<path d="M28.1562 28.6097C28.2574 27.8788 29.589 28.0825 29.6511 28.8178C29.6871 29.2455 29.5337 29.5745 29.0366 29.531C28.6019 29.493 28.2181 29.2905 28.1582 28.8167C28.1482 28.7371 28.1481 28.6687 28.1562 28.6097Z" fill="#FAE2E8"/>
<path d="M31.3919 27.5159C31.4209 27.5086 31.4524 27.5205 31.4765 27.5384C31.5267 27.5757 31.5747 27.6471 31.5479 27.7037C31.3892 28.0382 31.2676 28.3919 31.1128 28.7284C30.9142 29.1601 30.3248 29.1024 30.239 28.635C30.1274 28.0263 30.4718 27.7485 31.3919 27.5159Z" fill="#FAE8EE"/>
<path d="M28.6474 25.8404C29.3146 25.8662 29.1345 27.355 28.4668 27.3634C28.4344 27.3638 28.3998 27.362 28.3627 27.3578C28.0156 27.3187 27.6459 27.1866 27.7897 26.7371C27.9222 26.3224 28.1155 25.82 28.6474 25.8404Z" fill="#FBE3E8"/>
<path d="M24.2414 28.4019C24.8353 28.3456 24.9499 29.4253 24.3659 29.5466C24.3014 29.56 24.2281 29.5647 24.1446 29.5595C23.7567 29.5349 23.4622 29.3309 23.4426 28.9635C23.4145 28.4381 23.8746 28.4363 24.2414 28.4019Z" fill="#FAE1E6"/>
<path d="M33.2192 27.7348C33.6559 27.6975 34.0743 27.9796 34.2698 28.372C34.4674 28.7686 34.4717 29.2119 34.3596 29.6834C34.343 29.7533 34.2927 29.8051 34.2408 29.8548C33.633 30.4383 32.9351 31.0836 32.1183 30.4261C31.2312 29.712 31.9757 28.9683 32.3656 28.2819C32.6061 27.9453 32.8906 27.7628 33.2192 27.7348Z" fill="#FCF6F8"/>
<path d="M27.2883 27.3025C27.2663 27.0516 26.9379 26.1626 26.7802 25.3658C26.6678 24.7983 26.5769 24.8174 26.5651 23.9001C26.562 23.6566 26.8993 23.2589 26.8837 23.0462C26.8364 22.8235 26.6904 22.813 26.3289 22.8029C25.9932 22.7934 25.7269 22.9901 25.6588 23.0322C25.2525 23.2839 25.0425 23.1269 24.6715 23.4597C24.1074 23.9657 25.1954 23.8074 25.3588 24.196C25.5029 24.5389 25.5101 24.8536 25.6383 25.266C25.8691 26.0082 25.8202 25.9847 25.984 26.4296C26.1534 26.8897 26.3141 27.3817 26.4949 27.5765C26.7221 27.8214 27.317 27.629 27.2883 27.3025Z" fill="white"/>
<defs>
<linearGradient id="paint0_linear_309_24862" x1="5.38784" y1="-7.65609" x2="66.5759" y2="33.0313" gradientUnits="userSpaceOnUse">
<stop stop-color="#FDF8F3"/>
<stop offset="0.5" stop-color="#FADCE5"/>
<stop offset="1" stop-color="#F9F1E8"/>
</linearGradient>
</defs>
</svg>
