<svg width="194" height="183" viewBox="0 0 194 183" fill="none" xmlns="http://www.w3.org/2000/svg">
<path d="M146.193 48.199C155.703 46.8085 167.097 50.9276 175.648 55.5691C176.751 56.1674 176.989 57.6296 176.165 58.5755L165.097 71.2862C164.034 72.5066 164.783 74.4342 166.386 74.6588C171.721 75.4067 177.609 76.5191 182.939 77.3361C184.213 77.5315 184.992 78.8557 184.503 80.0489C178.15 95.5682 169.345 107.124 151.769 110.772C134.899 114.029 114.483 107.014 99.9822 98.2151C99.1966 97.7384 98.8517 96.7827 99.1523 95.9144C106.451 74.8316 122.099 50.6037 146.193 48.199Z" fill="url(#paint0_linear_310_25585)" fill-opacity="0.7" stroke="white" stroke-width="4"/>
<path d="M99.0701 99.1676C106.194 99.0721 113.311 99.6705 120.319 100.954C151.739 106.838 168.701 125.482 163.615 157.297C163.42 158.515 162.156 159.241 161 158.812C154.739 156.489 148.238 153.906 142.08 151.483C142.017 151.458 141.946 151.473 141.899 151.521C141.87 151.55 141.853 151.585 141.852 151.626C141.843 152.627 142.887 157.506 143.104 158.61L145.663 171.673C145.901 172.886 144.974 174.024 143.738 174.02C105.107 173.912 92.1249 143.399 96.4894 108.259C96.8498 105.357 97.1355 102.191 98.0057 99.4275C98.0687 99.2269 98.8549 99.1975 99.0701 99.1676Z" fill="url(#paint1_linear_310_25585)" fill-opacity="0.7" stroke="white" stroke-width="4"/>
<path d="M40.0174 48.1979C46.1543 47.3147 54.6621 49.0601 60.2092 51.773C77.4469 60.2041 87.8227 78.5643 94.2184 95.8817C94.545 96.7661 94.1985 97.7567 93.3902 98.2421C79.5262 106.568 64.2888 111.749 48.0041 111.57C27.5409 109.891 15.8661 98.3818 8.87023 80.0698C8.40922 78.8631 9.23274 77.5605 10.5136 77.3933C15.7701 76.707 21.5232 75.5771 26.9563 74.7323C28.5734 74.4808 29.2836 72.4954 28.1902 71.2777C24.5766 67.2532 20.6971 62.6126 17.2072 58.5521C16.3916 57.6032 16.6289 56.144 17.7237 55.5382C24.7299 51.6612 31.9276 48.9743 40.0174 48.1979Z" fill="url(#paint2_linear_310_25585)" fill-opacity="0.7" stroke="white" stroke-width="4"/>
<path d="M83.7556 9.53706C84.6655 8.72659 86.0727 8.93999 86.6694 10.0024C87.5753 11.6154 88.5382 13.4621 89.277 14.7979L95.0084 25.1982C95.7479 26.5402 97.6519 26.5817 98.4194 25.2554C101.148 20.5399 104.108 14.8973 106.7 10.1266C107.301 9.02166 108.769 8.7547 109.71 9.58846C134.065 31.1582 133.078 55.6608 112.534 80.7625C109.223 85.1436 102.589 91.4777 97.8842 95.2971C97.1686 95.8779 96.1479 95.8676 95.4361 95.2823C90.7264 91.4094 86.3458 87.1514 82.3403 82.5516C69.438 67.6689 60.1663 48.1272 68.7894 28.7986C72.3577 20.8006 77.4534 15.1505 83.7556 9.53706Z" fill="url(#paint3_linear_310_25585)" fill-opacity="0.7" stroke="white" stroke-width="4"/>
<path d="M90.6591 99.1672C91.8072 99.1272 92.8323 99.1425 93.9008 99.1792C94.7944 99.2099 95.5565 99.8379 95.736 100.714C96.8676 106.235 97.5317 113.785 97.6097 119.003C97.8288 133.676 94.8222 150.282 84.1286 161.13C74.5845 170.812 62.6077 173.564 49.6776 173.966C48.4353 174.005 47.4815 172.891 47.6983 171.668C48.7238 165.879 50.0479 159.678 51.157 154.007C51.3902 152.833 50.294 151.863 49.1746 152.286C47.4659 152.932 45.5999 153.698 44.2277 154.226L32.356 158.784C31.2026 159.227 29.9254 158.529 29.7204 157.311C27.3676 143.326 29.3809 127.971 39.48 117.351C52.6054 103.549 72.4433 99.9291 90.6591 99.1672Z" fill="url(#paint4_linear_310_25585)" fill-opacity="0.7" stroke="white" stroke-width="4"/>
<path d="M96.5969 69.1411C94.6961 69.1411 93.1562 71.1533 93.1562 73.6377C93.1562 78.2841 95.8366 88.4832 96.5969 88.4832C97.3572 88.4832 100.038 78.2841 100.038 73.6377C100.038 71.1552 98.4977 69.1411 96.5969 69.1411Z" fill="white" stroke="white" stroke-width="2"/>
<path d="M69.8775 88.5514C69.29 90.3581 70.728 92.4451 73.0897 93.2131C77.5095 94.6493 88.0369 95.2522 88.273 94.5283C88.5073 93.8045 79.6369 88.104 75.217 86.6678C72.8554 85.8998 70.465 86.7427 69.8775 88.5514Z" fill="white" stroke="white" stroke-width="2"/>
<path d="M80.083 119.957C81.6209 121.075 84.0498 120.351 85.509 118.343C88.2411 114.583 92.0677 104.757 91.4514 104.309C90.8351 103.862 82.6731 110.538 79.9409 114.297C78.4817 116.306 78.5451 118.84 80.083 119.957Z" fill="white" stroke="white" stroke-width="2"/>
<path d="M113.102 119.957C114.64 118.84 114.704 116.306 113.244 114.297C110.512 110.538 102.35 103.862 101.734 104.309C101.118 104.757 104.944 114.583 107.676 118.343C109.136 120.351 111.564 121.075 113.102 119.957Z" fill="white" stroke="white" stroke-width="2"/>
<path d="M123.312 88.5511C122.725 86.7444 120.334 85.8996 117.973 86.6676C113.553 88.1037 104.681 93.8042 104.917 94.5281C105.151 95.2519 115.68 94.649 120.1 93.2128C122.46 92.4448 123.898 90.3578 123.312 88.5511Z" fill="white" stroke="white" stroke-width="2"/>
<defs>
<linearGradient id="paint0_linear_310_25585" x1="98.6523" y1="47.9248" x2="159.373" y2="130.702" gradientUnits="userSpaceOnUse">
<stop stop-color="#FADCE5"/>
<stop offset="1" stop-color="white"/>
</linearGradient>
<linearGradient id="paint1_linear_310_25585" x1="95.6816" y1="99.1577" x2="170.281" y2="167.74" gradientUnits="userSpaceOnUse">
<stop stop-color="#FADCE5"/>
<stop offset="1" stop-color="white"/>
</linearGradient>
<linearGradient id="paint2_linear_310_25585" x1="8" y1="47.9668" x2="68.6593" y2="130.715" gradientUnits="userSpaceOnUse">
<stop stop-color="#FADCE5"/>
<stop offset="1" stop-color="white"/>
</linearGradient>
<linearGradient id="paint3_linear_310_25585" x1="65.4375" y1="8" x2="148.71" y2="66.988" gradientUnits="userSpaceOnUse">
<stop stop-color="#FADCE5"/>
<stop offset="1" stop-color="white"/>
</linearGradient>
<linearGradient id="paint4_linear_310_25585" x1="28.832" y1="99.1436" x2="103.435" y2="167.686" gradientUnits="userSpaceOnUse">
<stop stop-color="#FADCE5"/>
<stop offset="1" stop-color="white"/>
</linearGradient>
</defs>
</svg>
